REM DIRINDEX 1\2\4,1\2\5,1\2\6,1\3\7,1\3\8,1\3\9,1\3\10
REM DIRNAME folder01,folder02,folder03,folder04,folder05,folder06,folder07,folder08,folder09,folder10
TITLE ""
FILE "a_51.mp3" MP3
  TRACK 01 AUDIO
    TITLE "0:"
    INDEX 01 00:00:00
  TRACK 02 AUDIO
    TITLE "6:cjc058_1484"
    INDEX 01 00:00:11
  TRACK 03 AUDIO
    TITLE "0:"
    INDEX 01 00:02:59
  TRACK 04 AUDIO
    TITLE "4:cjc058_1485"
    INDEX 01 00:03:29
  TRACK 05 AUDIO
    TITLE "0:"
    INDEX 01 00:04:56
  TRACK 06 AUDIO
    TITLE "5:cjc058_1486"
    INDEX 01 00:05:10
  TRACK 07 AUDIO
    TITLE "0:"
    INDEX 01 00:09:00
  TRACK 08 AUDIO
    TITLE "4:cjc058_1487"
    INDEX 01 00:10:04
  TRACK 09 AUDIO
    TITLE "0:"
    INDEX 01 00:11:72
  TRACK 10 AUDIO
    TITLE "5:cjc058_1488"
    INDEX 01 00:12:26
  TRACK 11 AUDIO
    TITLE "0:"
    INDEX 01 00:14:72
  TRACK 12 AUDIO
    TITLE "4:cjc058_1489"
    INDEX 01 00:15:74
  TRACK 13 AUDIO
    TITLE "0:"
    INDEX 01 00:17:20
  TRACK 14 AUDIO
    TITLE "5:cjc058_1490"
    INDEX 01 00:17:49
  TRACK 15 AUDIO
    TITLE "0:"
    INDEX 01 00:19:18
  TRACK 16 AUDIO
    TITLE "4:cjc058_1491"
    INDEX 01 00:20:20
  TRACK 17 AUDIO
    TITLE "0:"
    INDEX 01 00:22:05
  TRACK 18 AUDIO
    TITLE "5:cjc058_1492"
    INDEX 01 00:22:34
  TRACK 19 AUDIO
    TITLE "0:"
    INDEX 01 00:24:20
  TRACK 20 AUDIO
    TITLE "4:cjc058_1493"
    INDEX 01 00:25:23
  TRACK 21 AUDIO
    TITLE "0:"
    INDEX 01 00:27:10
  TRACK 22 AUDIO
    TITLE "5:cjc058_1494"
    INDEX 01 00:27:39
  TRACK 23 AUDIO
    TITLE "0:"
    INDEX 01 00:29:34
  TRACK 24 AUDIO
    TITLE "4:cjc058_1495"
    INDEX 01 00:30:40
  TRACK 25 AUDIO
    TITLE "0:"
    INDEX 01 00:34:51
  TRACK 26 AUDIO
    TITLE "5:cjc058_1496"
    INDEX 01 00:35:06
  TRACK 27 AUDIO
    TITLE "0:"
    INDEX 01 00:38:02
  TRACK 28 AUDIO
    TITLE "4:cjc058_1497"
    INDEX 01 00:39:05
  TRACK 29 AUDIO
    TITLE "0:"
    INDEX 01 00:40:15
  TRACK 30 AUDIO
    TITLE "5:cjc058_1498"
    INDEX 01 00:40:44
  TRACK 31 AUDIO
    TITLE "0:"
    INDEX 01 00:42:27
  TRACK 32 AUDIO
    TITLE "4:cjc058_1499"
    INDEX 01 00:43:31
  TRACK 33 AUDIO
    TITLE "0:"
    INDEX 01 00:44:73
  TRACK 34 AUDIO
    TITLE "5:cjc058_1500"
    INDEX 01 00:45:28
  TRACK 35 AUDIO
    TITLE "0:"
    INDEX 01 00:46:60
  TRACK 36 AUDIO
    TITLE "4:cjc058_1501"
    INDEX 01 00:47:64
  TRACK 37 AUDIO
    TITLE "0:"
    INDEX 01 00:49:37
  TRACK 38 AUDIO
    TITLE "5:cjc058_1502"
    INDEX 01 00:49:67
  TRACK 39 AUDIO
    TITLE "0:"
    INDEX 01 00:51:20
  TRACK 40 AUDIO
    TITLE "4:cjc058_1503"
    INDEX 01 00:52:26
  TRACK 41 AUDIO
    TITLE "0:"
    INDEX 01 00:54:38
  TRACK 42 AUDIO
    TITLE "5:cjc058_1504"
    INDEX 01 00:54:68
  TRACK 43 AUDIO
    TITLE "0:"
    INDEX 01 00:56:31
  TRACK 44 AUDIO
    TITLE "4:cjc058_1505"
    INDEX 01 00:57:37
  TRACK 45 AUDIO
    TITLE "0:"
    INDEX 01 00:59:30
  TRACK 46 AUDIO
    TITLE "5:cjc058_1506"
    INDEX 01 00:59:59
  TRACK 47 AUDIO
    TITLE "0:"
    INDEX 01 01:02:34
  TRACK 48 AUDIO
    TITLE "4:cjc058_1507"
    INDEX 01 01:03:37
  TRACK 49 AUDIO
    TITLE "0:"
    INDEX 01 01:05:17
  TRACK 50 AUDIO
    TITLE "5:cjc058_1508"
    INDEX 01 01:05:46
  TRACK 51 AUDIO
    TITLE "0:"
    INDEX 01 01:07:31
  TRACK 52 AUDIO
    TITLE "4:cjc058_1509"
    INDEX 01 01:08:36
  TRACK 53 AUDIO
    TITLE "0:"
    INDEX 01 01:10:16
  TRACK 54 AUDIO
    TITLE "5:cjc058_1510"
    INDEX 01 01:10:45
  TRACK 55 AUDIO
    TITLE "0:"
    INDEX 01 01:13:63
  TRACK 56 AUDIO
    TITLE "4:cjc058_1511"
    INDEX 01 01:14:68
  TRACK 57 AUDIO
    TITLE "0:"
    INDEX 01 01:16:63
  TRACK 58 AUDIO
    TITLE "5:cjc058_1512"
    INDEX 01 01:17:18
  TRACK 59 AUDIO
    TITLE "0:"
    INDEX 01 01:19:44
  TRACK 60 AUDIO
    TITLE "4:cjc058_1513"
    INDEX 01 01:20:48
  TRACK 61 AUDIO
    TITLE "0:"
    INDEX 01 01:22:48
  TRACK 62 AUDIO
    TITLE "5:cjc058_1514"
    INDEX 01 01:23:03
  TRACK 63 AUDIO
    TITLE "0:"
    INDEX 01 01:25:04
  TRACK 64 AUDIO
    TITLE "4:cjc058_1515"
    INDEX 01 01:26:05
  TRACK 65 AUDIO
    TITLE "0:"
    INDEX 01 01:27:61
  TRACK 66 AUDIO
    TITLE "5:cjc058_1516"
    INDEX 01 01:28:16
  TRACK 67 AUDIO
    TITLE "0:"
    INDEX 01 01:29:64
  TRACK 68 AUDIO
    TITLE "4:cjc058_1517"
    INDEX 01 01:30:66
  TRACK 69 AUDIO
    TITLE "0:"
    INDEX 01 01:32:45
  TRACK 70 AUDIO
    TITLE "5:cjc058_1518"
    INDEX 01 01:32:74
  TRACK 71 AUDIO
    TITLE "0:"
    INDEX 01 01:35:61
  TRACK 72 AUDIO
    TITLE "4:cjc058_1519"
    INDEX 01 01:36:64
  TRACK 73 AUDIO
    TITLE "0:"
    INDEX 01 01:38:51
  TRACK 74 AUDIO
    TITLE "5:cjc058_1520"
    INDEX 01 01:39:06
  TRACK 75 AUDIO
    TITLE "0:"
    INDEX 01 01:41:18
  TRACK 76 AUDIO
    TITLE "4:cjc058_1521"
    INDEX 01 01:42:20
  TRACK 77 AUDIO
    TITLE "0:"
    INDEX 01 01:44:05
  TRACK 78 AUDIO
    TITLE "5:cjc058_1522"
    INDEX 01 01:44:34
  TRACK 79 AUDIO
    TITLE "0:"
    INDEX 01 01:47:19
  TRACK 80 AUDIO
    TITLE "4:cjc058_1523"
    INDEX 01 01:48:24
  TRACK 81 AUDIO
    TITLE "0:"
    INDEX 01 01:49:71
  TRACK 82 AUDIO
    TITLE "5:cjc058_1524"
    INDEX 01 01:50:25
  TRACK 83 AUDIO
    TITLE "0:"
    INDEX 01 01:52:32
  TRACK 84 AUDIO
    TITLE "4:cjc058_1525"
    INDEX 01 01:53:35
  TRACK 85 AUDIO
    TITLE "0:"
    INDEX 01 01:55:09
  TRACK 86 AUDIO
    TITLE "5:cjc058_1526"
    INDEX 01 01:55:38
  TRACK 87 AUDIO
    TITLE "0:"
    INDEX 01 01:59:26
  TRACK 88 AUDIO
    TITLE "4:cjc058_1527"
    INDEX 01 02:00:31
  TRACK 89 AUDIO
    TITLE "0:"
    INDEX 01 02:01:68
  TRACK 90 AUDIO
    TITLE "5:cjc058_1528"
    INDEX 01 02:02:22
  TRACK 91 AUDIO
    TITLE "0:"
    INDEX 01 02:05:40
  TRACK 92 AUDIO
    TITLE "4:cjc058_1529"
    INDEX 01 02:06:44
  TRACK 93 AUDIO
    TITLE "0:"
    INDEX 01 02:08:35
  TRACK 94 AUDIO
    TITLE "5:cjc058_1530"
    INDEX 01 02:08:62
  TRACK 95 AUDIO
    TITLE "0:"
    INDEX 01 02:11:70
  TRACK 96 AUDIO
    TITLE "4:cjc058_1531"
    INDEX 01 02:12:74
  TRACK 97 AUDIO
    TITLE "0:"
    INDEX 01 02:15:15
  TRACK 98 AUDIO
    TITLE "5:cjc058_1532"
    INDEX 01 02:15:45
  TRACK 99 AUDIO
    TITLE "0:"
    INDEX 01 02:18:08
  TRACK 100 AUDIO
    TITLE "4:cjc058_1533"
    INDEX 01 02:19:13
  TRACK 101 AUDIO
    TITLE "0:"
    INDEX 01 02:21:06
  TRACK 102 AUDIO
    TITLE "5:cjc058_1534"
    INDEX 01 02:21:35
  TRACK 103 AUDIO
    TITLE "0:"
    INDEX 01 02:26:05
  TRACK 104 AUDIO
    TITLE "4:cjc058_1535"
    INDEX 01 02:27:09
  TRACK 105 AUDIO
    TITLE "0:"
    INDEX 01 02:29:37
  TRACK 106 AUDIO
    TITLE "5:cjc058_1536"
    INDEX 01 02:29:66
  TRACK 107 AUDIO
    TITLE "0:"
    INDEX 01 02:31:65
  TRACK 108 AUDIO
    TITLE "4:cjc058_1537"
    INDEX 01 02:32:69
  TRACK 109 AUDIO
    TITLE "0:"
    INDEX 01 02:35:14
  TRACK 110 AUDIO
    TITLE "5:cjc058_1538"
    INDEX 01 02:35:41
  TRACK 111 AUDIO
    TITLE "0:"
    INDEX 01 02:37:07
